<svg width="500" height="500" viewBox="0 0 500 500" fill="none" xmlns="http://www.w3.org/2000/svg">
<path d="M41.0581 263.177C41.0581 263.177 43.4021 335.854 104.071 384.295C164.74 432.735 248.808 436.205 316.865 440.806C384.922 445.408 437.196 406.88 445.075 348.641C452.953 290.402 400.949 273.306 372.734 207.011C344.519 140.716 347.029 118.925 287.328 78.1514C227.627 37.3774 134.235 62.4144 85.2691 132.266C36.3041 202.118 41.0581 263.177 41.0581 263.177Z" fill="#F6F6F7"/>
<path opacity="0.7" d="M41.0581 263.177C41.0581 263.177 43.4021 335.854 104.071 384.295C164.74 432.735 248.808 436.205 316.865 440.806C384.922 445.408 437.196 406.88 445.075 348.641C452.953 290.402 400.949 273.306 372.734 207.011C344.519 140.716 347.029 118.925 287.328 78.1514C227.627 37.3774 134.235 62.4144 85.2691 132.266C36.3041 202.118 41.0581 263.177 41.0581 263.177Z" fill="#71B5F9"/>
<path d="M68.667 380.533H59.49" stroke="#1F1F1F" stroke-width="1.1133" stroke-miterlimit="10"/>
<path d="M440.51 380.533H83.1951" stroke="#1F1F1F" stroke-width="1.1133" stroke-miterlimit="10"/>
<path d="M306.068 418.905C322.855 418.905 336.463 415.163 336.463 410.546C336.463 405.93 322.855 402.188 306.068 402.188C289.281 402.188 275.673 405.93 275.673 410.546C275.673 415.163 289.281 418.905 306.068 418.905Z" fill="#1F1F1F"/>
<path d="M149.026 429.539C117.403 429.539 112.734 424.967 112.273 421.278C112.073 419.68 112.557 418.256 113.712 417.045C122.234 408.109 171.325 411.888 239.272 417.121C248.748 417.851 258.551 418.605 268.602 419.352C337.255 424.453 364.893 423.789 370.576 416.894C371.741 415.48 371.984 413.716 371.336 411.343C368.621 401.387 332.264 401.31 318.488 402.117C317.836 402.15 317.271 401.655 317.233 401.001C317.195 400.347 317.694 399.784 318.349 399.746C323.617 399.437 369.917 397.112 373.629 410.72C374.485 413.859 374.086 416.373 372.409 418.407C365.996 426.187 339.759 427.022 268.425 421.722C258.372 420.975 248.568 420.22 239.089 419.491C174.327 414.503 123.174 410.563 115.432 418.687C114.776 419.375 114.521 420.105 114.631 420.985C114.925 423.338 120.578 428.617 166.641 426.778C192.369 425.752 218.222 422.95 218.48 422.922C219.127 422.85 219.719 423.321 219.79 423.974C219.861 424.626 219.39 425.213 218.738 425.284C218.479 425.312 192.556 428.122 166.747 429.151C160.057 429.417 154.182 429.539 149.026 429.539Z" fill="#71B5F9" stroke="#1F1F1F" stroke-width="1.1133" stroke-miterlimit="10"/>
<path d="M302.891 416.969C322.154 412.494 334.142 393.25 329.667 373.987C325.192 354.724 305.948 342.736 286.686 347.212C267.423 351.687 255.435 370.93 259.91 390.193C264.385 409.456 283.628 421.444 302.891 416.969Z" fill="#71B5F9"/>
<mask id="mask0_31656_2151" style="mask-type:luminance" maskUnits="userSpaceOnUse" x="258" y="346" width="73" height="72">
<path d="M302.891 416.969C322.154 412.494 334.142 393.25 329.667 373.987C325.192 354.724 305.948 342.736 286.686 347.212C267.423 351.687 255.435 370.93 259.91 390.193C264.385 409.456 283.628 421.444 302.891 416.969Z" fill="white"/>
</mask>
<g mask="url(#mask0_31656_2151)">
<path d="M294.77 417.887C314.545 417.887 330.576 401.856 330.576 382.081C330.576 374.6 328.278 367.657 324.355 361.912C323.959 377.506 315.335 400.537 270.569 408.464C276.942 414.314 285.438 417.887 294.77 417.887Z" fill="#F6F6F7"/>
</g>
<mask id="mask1_31656_2151" style="mask-type:luminance" maskUnits="userSpaceOnUse" x="258" y="346" width="73" height="72">
<path d="M302.891 416.969C322.154 412.494 334.142 393.25 329.667 373.987C325.192 354.724 305.948 342.736 286.686 347.212C267.423 351.687 255.435 370.93 259.91 390.193C264.385 409.456 283.628 421.444 302.891 416.969Z" fill="white"/>
</mask>
<g mask="url(#mask1_31656_2151)">
<path opacity="0.3" d="M294.77 417.887C314.545 417.887 330.576 401.856 330.576 382.081C330.576 374.6 328.278 367.657 324.355 361.912C323.959 377.506 315.335 400.537 270.569 408.464C276.942 414.314 285.438 417.887 294.77 417.887Z" fill="#71B5F9"/>
</g>
<mask id="mask2_31656_2151" style="mask-type:luminance" maskUnits="userSpaceOnUse" x="258" y="346" width="73" height="72">
<path d="M329.18 374.1C333.593 393.094 321.772 412.069 302.778 416.482C283.784 420.894 264.809 409.074 260.397 390.08C255.984 371.086 267.805 352.111 286.799 347.699C305.793 343.286 324.767 355.106 329.18 374.1Z" fill="white" stroke="white" stroke-width="1.00004"/>
</mask>
<g mask="url(#mask2_31656_2151)">
<path d="M312.394 396.118C301.876 385.827 289.753 382.613 289.753 382.613M312.394 396.118C313.026 396.127 313.645 396.143 314.29 396.144C319.255 391.143 322.7 386.309 325.078 382.079M312.394 396.118C297.661 395.905 286.457 393.635 278.045 390.642C278.588 368.022 286.657 352.949 290.877 346.567C292.208 346.417 293.559 346.333 294.93 346.333C296.154 346.333 297.362 346.396 298.554 346.515M325.078 382.079C308.306 364.337 291.948 366.149 291.948 366.149C291.948 366.149 308.305 364.337 325.078 382.079ZM325.078 382.079C326.003 380.434 326.77 378.884 327.402 377.45C320.466 367.672 308.451 361.038 301.959 360.017L300.457 359.664M300.457 359.664C296.115 358.981 293.411 359.564 293.411 359.564M300.457 359.664L304.73 347.699C302.735 347.134 300.674 346.727 298.554 346.515M298.554 346.515C295.792 350.981 288.654 365.26 288.654 393.589M320.485 388.832C306.217 374.93 290.485 374.198 290.485 374.198" stroke="#1F1F1F" stroke-width="1.1133" stroke-miterlimit="10" stroke-linecap="round" stroke-linejoin="round"/>
<path d="M278.047 390.642C278.59 368.022 286.659 352.948 290.879 346.567C287.512 346.946 284.286 347.789 281.267 349.034C276.701 355.689 269.506 368.895 268.917 386.63C271.508 388.027 274.541 389.394 278.047 390.642Z" stroke="#1F1F1F" stroke-width="1.1133" stroke-miterlimit="10" stroke-linecap="round" stroke-linejoin="round"/>
<path d="M281.267 349.034C268.952 354.112 260.089 365.844 259.148 379.754C261.333 381.797 264.5 384.249 268.917 386.63C269.506 368.895 276.701 355.689 281.267 349.034Z" stroke="#1F1F1F" stroke-width="1.1133" stroke-miterlimit="10" stroke-linecap="round" stroke-linejoin="round"/>
<path d="M321.739 358.375C325.225 362.293 327.861 366.978 329.369 372.147C328.93 373.627 328.298 375.418 327.403 377.451C317.106 364.545 306.949 360.686 300.459 359.664L304.732 347.699C308.117 348.659 311.296 350.101 314.194 351.949M321.739 358.375L319.022 367.613M321.739 358.375C319.538 355.901 316.998 353.737 314.194 351.949M314.194 351.949L311.139 363.359" stroke="#1F1F1F" stroke-width="1.1133" stroke-miterlimit="10" stroke-linecap="round" stroke-linejoin="round"/>
<path d="M327.402 377.451C328.298 375.418 328.929 373.627 329.368 372.147C330.3 375.341 330.809 378.715 330.809 382.21C330.809 382.734 330.792 383.253 330.77 383.771C315.645 404.956 303.98 414.104 296.734 418.04C296.137 418.07 295.536 418.086 294.931 418.086C291.163 418.086 287.532 417.502 284.12 416.425C288.801 414.275 293.026 412.031 296.809 409.728M327.402 377.451C327.413 377.465 327.424 377.477 327.435 377.491M327.402 377.451C326.77 378.885 326.807 378.865 325.882 380.51C325.936 380.567 325.024 382.023 325.078 382.08C325.024 382.022 324.123 383.88 324.069 383.822C321.691 388.051 314.514 396.149 314.63 396.149C314.514 396.149 310.752 399.559 308.694 401.278M308.694 401.278C308.722 401.275 308.748 401.274 308.776 401.271M308.694 401.278C305.293 404.119 301.355 406.961 296.809 409.728M296.809 409.728C296.895 409.712 296.985 409.702 297.07 409.685" stroke="#1F1F1F" stroke-width="1.1133" stroke-miterlimit="10" stroke-linecap="round" stroke-linejoin="round"/>
<path d="M330.77 383.771C315.645 404.957 303.98 414.104 296.735 418.042C315.195 417.128 329.978 402.262 330.77 383.771Z" stroke="#1F1F1F" stroke-width="1.1133" stroke-miterlimit="10" stroke-linecap="round" stroke-linejoin="round"/>
<path d="M266.889 404.575C271.281 410.075 277.252 414.258 284.121 416.426C288.801 414.276 293.027 412.031 296.81 409.729C288.27 411.306 274.915 407.392 266.889 404.575Z" stroke="#1F1F1F" stroke-width="1.1133" stroke-miterlimit="10" stroke-linecap="round" stroke-linejoin="round"/>
<path d="M296.81 409.729C301.356 406.962 305.294 404.12 308.695 401.279C282.911 403.916 267.001 395.934 260.244 391.39C261.533 396.272 263.827 400.743 266.888 404.576C274.915 407.392 288.27 411.306 296.81 409.729Z" stroke="#1F1F1F" stroke-width="1.1133" stroke-miterlimit="10" stroke-linecap="round" stroke-linejoin="round"/>
<path d="M312.394 396.118C313.025 396.127 313.645 396.143 314.29 396.144C312.603 397.844 310.753 399.559 308.695 401.278C282.911 403.916 267.001 395.934 260.245 391.389C259.472 388.459 259.055 385.383 259.055 382.21C259.055 381.384 259.093 380.566 259.148 379.754C261.333 381.797 265.757 386.385 278.047 390.642M312.394 396.118C312.53 396.251 312.667 396.38 312.802 396.515M312.394 396.118C297.661 395.905 286.457 393.635 278.047 390.642M278.047 390.642C278.047 390.649 278.046 390.655 278.046 390.662" stroke="#1F1F1F" stroke-width="1.1133" stroke-miterlimit="10" stroke-linecap="round" stroke-linejoin="round"/>
</g>
<path d="M302.891 416.969C322.154 412.494 334.142 393.25 329.667 373.987C325.192 354.724 305.948 342.736 286.686 347.212C267.423 351.687 255.435 370.93 259.91 390.193C264.385 409.456 283.628 421.444 302.891 416.969Z" stroke="#263238" stroke-width="1.11335" stroke-miterlimit="10" stroke-linecap="round" stroke-linejoin="round"/>
<path d="M360.731 320.884C360.731 320.884 358.283 312.927 351.142 310.071C346.179 308.086 340.466 308.605 335.325 309.5C325.744 311.166 317.383 314.976 308.299 318.232C308.299 318.232 312.175 316.804 328.088 324.556C333.949 327.412 340.652 329.627 347.354 329.477C352.739 329.357 360.987 327.824 360.731 320.884Z" fill="#71B5F9"/>
<path d="M361.594 297.509C361.594 297.509 361.548 289.185 355.537 284.387C351.359 281.053 345.74 279.9 340.559 279.271C330.905 278.099 321.8 279.33 312.163 279.824C312.163 279.824 316.287 279.576 329.282 291.595C334.068 296.022 339.845 300.079 346.305 301.872C351.495 303.312 359.835 304.227 361.594 297.509Z" fill="#71B5F9"/>
<path d="M378.044 328.42C378.044 328.42 371.551 323.211 371.529 315.52C371.514 310.175 374.103 305.056 376.83 300.607C381.912 292.315 388.535 285.948 394.912 278.705C394.912 278.705 392.155 281.782 393.494 299.432C393.987 305.933 393.575 312.98 390.965 319.155C388.867 324.115 384.4 331.217 378.044 328.42Z" fill="#71B5F9"/>
<path d="M401.039 341.204C401.039 341.204 400.122 332.93 405.538 327.47C409.302 323.675 414.75 321.88 419.824 320.656C429.278 318.376 438.464 318.545 448.093 317.921C448.093 317.921 443.968 318.152 432.45 331.593C428.208 336.544 422.939 341.242 416.73 343.769C411.741 345.8 403.563 347.673 401.039 341.204Z" fill="#71B5F9"/>
<path d="M399.532 311.712C399.532 311.712 391.285 310.578 387.316 303.991C384.557 299.413 384.149 293.691 384.203 288.473C384.304 278.749 386.716 269.883 388.467 260.394C388.467 260.394 387.682 264.45 397.897 278.906C401.659 284.231 404.926 290.488 405.858 297.127C406.606 302.46 406.422 310.848 399.532 311.712Z" fill="#71B5F9"/>
<path d="M423.267 296.901C423.267 296.901 429.198 302.742 436.839 301.866C442.149 301.257 446.931 298.088 451.032 294.86C458.673 288.845 464.224 281.523 470.673 274.345C470.673 274.345 467.939 277.442 450.253 278.173C443.739 278.443 436.788 279.674 430.961 282.988C426.278 285.651 419.746 290.916 423.267 296.901Z" fill="#71B5F9"/>
<path d="M416.398 291.127C416.398 291.127 424.681 291.959 430.085 286.487C433.841 282.684 435.58 277.217 436.752 272.132C438.935 262.655 438.67 253.472 439.195 243.836C439.195 243.836 439.006 247.963 425.685 259.618C420.778 263.911 416.135 269.228 413.671 275.463C411.692 280.473 409.903 288.67 416.398 291.127Z" fill="#71B5F9"/>
<path d="M386.826 371.74L372.531 336.551L356.036 295.864" stroke="#1F1F1F" stroke-width="1.1133" stroke-miterlimit="10" stroke-linecap="round" stroke-linejoin="round"/>
<path d="M390.126 365.692L404.421 316.757L419.816 286.517" stroke="#1F1F1F" stroke-width="1.1133" stroke-miterlimit="10" stroke-linecap="round" stroke-linejoin="round"/>
<path d="M395.624 346.448L409.919 338.2" stroke="#1F1F1F" stroke-width="1.1133" stroke-miterlimit="10" stroke-linecap="round" stroke-linejoin="round"/>
<path d="M404.421 316.757L397.273 300.812" stroke="#1F1F1F" stroke-width="1.1133" stroke-miterlimit="10" stroke-linecap="round" stroke-linejoin="round"/>
<path d="M413.366 300.891L430.813 293.115" stroke="#1F1F1F" stroke-width="1.1133" stroke-miterlimit="10" stroke-linecap="round" stroke-linejoin="round"/>
<path d="M375.28 343.149L381.328 318.956" stroke="#1F1F1F" stroke-width="1.1133" stroke-miterlimit="10" stroke-linecap="round" stroke-linejoin="round"/>
<path d="M367.259 324.761L353.287 317.307" stroke="#1F1F1F" stroke-width="1.1133" stroke-miterlimit="10" stroke-linecap="round" stroke-linejoin="round"/>
<path d="M394.163 389.334H382.239C378.218 389.334 374.765 386.475 374.016 382.524L369.782 360.193H406.62L402.386 382.524C401.637 386.475 398.184 389.334 394.163 389.334Z" fill="#1F1F1F" stroke="#1F1F1F" stroke-width="1.1133" stroke-miterlimit="10" stroke-linecap="round" stroke-linejoin="round"/>
<path d="M58.6631 253.199C58.6631 250.429 59.9391 248.392 62.8181 248.392C65.7511 248.392 67.0281 250.429 67.0281 253.199V262.922C67.0281 265.692 65.7521 267.729 62.8181 267.729C59.9391 267.729 58.6631 265.692 58.6631 262.922V253.199ZM59.9131 263.004C59.9131 265.068 60.7281 266.589 62.8191 266.589C64.9381 266.589 65.7791 265.068 65.7791 263.004V253.118C65.7791 251.054 64.9381 249.532 62.8191 249.532C60.7281 249.532 59.9131 251.053 59.9131 253.118V263.004Z" fill="#1F1F1F"/>
<path d="M69.0142 253.199C69.0142 250.429 70.2902 248.392 73.1692 248.392C76.1022 248.392 77.3792 250.429 77.3792 253.199V262.922C77.3792 265.692 76.1032 267.729 73.1692 267.729C70.2902 267.729 69.0142 265.692 69.0142 262.922V253.199ZM70.2632 263.004C70.2632 265.068 71.0782 266.589 73.1692 266.589C75.2882 266.589 76.1292 265.068 76.1292 263.004V253.118C76.1292 251.054 75.2882 249.532 73.1692 249.532C71.0782 249.532 70.2632 251.053 70.2632 253.118V263.004Z" fill="#1F1F1F"/>
<path d="M83.3821 248.554C86.3151 248.554 87.4561 250.401 87.4561 253.171V255.235C87.4561 258.25 86.0701 259.744 83.0561 259.744H80.6941V267.566H79.4441V248.554H83.3821ZM83.0561 258.603C85.2561 258.603 86.2071 257.625 86.2071 255.317V253.09C86.2071 251.026 85.5021 249.695 83.3831 249.695H80.6941V258.604H83.0561V258.603Z" fill="#1F1F1F"/>
<path d="M97.3451 253.145V253.552H96.1501V253.063C96.1501 251.053 95.3901 249.532 93.3261 249.532C91.2621 249.532 90.5021 251.026 90.5021 253.036C90.5021 257.653 97.3741 257.735 97.3741 262.977C97.3741 265.72 96.1791 267.73 93.2721 267.73C90.3661 267.73 89.1711 265.72 89.1711 262.977V261.999H90.3661V263.058C90.3661 265.095 91.1531 266.562 93.2451 266.562C95.3361 266.562 96.1241 265.095 96.1241 263.058C96.1241 258.495 89.2521 258.414 89.2521 253.118C89.2521 250.266 90.5021 248.419 93.3001 248.392C96.1781 248.391 97.3451 250.401 97.3451 253.145Z" fill="#1F1F1F"/>
<path d="M100.471 265.176V267.566H99.248V265.176H100.471Z" fill="#1F1F1F"/>
<path d="M103.868 265.176V267.566H102.645V265.176H103.868Z" fill="#1F1F1F"/>
<path d="M107.263 265.176V267.566H106.04V265.176H107.263Z" fill="#1F1F1F"/>
<path d="M62.6831 276.216C65.6161 276.216 66.7571 278.063 66.7571 280.833V282.897C66.7571 285.912 65.3721 287.406 62.3571 287.406H59.9941V295.228H58.7441V276.216H62.6831ZM62.3571 286.265C64.5571 286.265 65.5071 285.287 65.5071 282.979V280.752C65.5071 278.688 64.8021 277.357 62.6831 277.357H59.9941V286.266L62.3571 286.265Z" fill="#1F1F1F"/>
<path d="M70.1 291.017L69.15 295.227H68.009L72.164 276.188H73.985L78.221 295.227H76.971L76.021 291.017H70.1ZM70.29 289.931H75.831L73.033 277.628L70.29 289.931Z" fill="#1F1F1F"/>
<path d="M88.2191 280.86V282.272H87.0241V280.779C87.0241 278.742 86.2361 277.193 84.1451 277.193C82.0541 277.193 81.2661 278.741 81.2661 280.779V290.665C81.2661 292.701 82.0541 294.223 84.1451 294.223C86.2361 294.223 87.0241 292.702 87.0241 290.665V286.564H84.4981V285.423H88.2191V290.583C88.2191 293.326 87.0241 295.39 84.1171 295.39C81.2111 295.39 80.0161 293.326 80.0161 290.583V280.86C80.0161 278.117 81.2111 276.053 84.1171 276.053C87.0241 276.053 88.2191 278.117 88.2191 280.86Z" fill="#1F1F1F"/>
<path d="M96.749 285.016V286.157H91.561V294.087H97.807V295.228H90.311V276.216H97.807V277.357H91.561V285.016H96.749Z" fill="#1F1F1F"/>
<path d="M105.197 295.228H104.057V276.216H105.687L111.39 292.267V276.216H112.531V295.228H111.146L105.198 278.28L105.197 295.228Z" fill="#1F1F1F"/>
<path d="M114.598 280.86C114.598 278.09 115.874 276.053 118.753 276.053C121.686 276.053 122.963 278.09 122.963 280.86V290.583C122.963 293.353 121.687 295.39 118.753 295.39C115.874 295.39 114.598 293.353 114.598 290.583V280.86ZM115.847 290.665C115.847 292.729 116.662 294.25 118.753 294.25C120.872 294.25 121.713 292.729 121.713 290.665V280.779C121.713 278.715 120.872 277.193 118.753 277.193C116.662 277.193 115.847 278.714 115.847 280.779V290.665Z" fill="#1F1F1F"/>
<path d="M128.233 295.228V277.357H124.377V276.216H133.366V277.357H129.482V295.228H128.233Z" fill="#1F1F1F"/>
<path d="M145.293 285.478V286.619H140.378V295.229H139.128V276.217H146.352V277.358H140.377V285.479H145.293V285.478Z" fill="#1F1F1F"/>
<path d="M148.174 280.86C148.174 278.09 149.45 276.053 152.329 276.053C155.262 276.053 156.539 278.09 156.539 280.86V290.583C156.539 293.353 155.263 295.39 152.329 295.39C149.45 295.39 148.174 293.353 148.174 290.583V280.86ZM149.423 290.665C149.423 292.729 150.238 294.25 152.329 294.25C154.448 294.25 155.289 292.729 155.289 290.665V280.779C155.289 278.715 154.448 277.193 152.329 277.193C150.238 277.193 149.423 278.714 149.423 280.779V290.665Z" fill="#1F1F1F"/>
<path d="M159.801 290.638C159.801 292.675 160.563 294.25 162.654 294.25C164.745 294.25 165.505 292.675 165.505 290.638V276.216H166.673V290.584C166.673 293.3 165.532 295.391 162.626 295.391C159.72 295.391 158.551 293.299 158.551 290.584V276.216H159.801V290.638Z" fill="#1F1F1F"/>
<path d="M169.96 295.228H168.819V276.216H170.449L176.152 292.267V276.216H177.293V295.228H175.908L169.96 278.28V295.228Z" fill="#1F1F1F"/>
<path d="M183.625 276.216C186.559 276.216 187.835 278.144 187.835 280.942V290.502C187.835 293.299 186.559 295.228 183.625 295.228H179.442V276.216H183.625ZM183.597 294.087C185.716 294.087 186.585 292.648 186.585 290.556V280.887C186.585 278.795 185.689 277.356 183.597 277.356H180.691V294.087H183.597Z" fill="#1F1F1F"/>
<path d="M231.153 342.281C208.887 342.282 195.512 322.528 190.76 305.156L190.599 304.547C189.691 301.053 191.787 297.485 195.281 296.578C198.776 295.675 202.342 297.766 203.25 301.259L203.369 301.712C206.986 314.933 216.815 330.043 232.582 329.171C238.87 328.817 243.934 326.345 248.062 321.616C256.714 311.704 260.581 290.126 259.718 279.249C259.489 276.37 261.638 273.852 264.516 273.624C267.415 273.396 269.913 275.544 270.141 278.421C271.103 290.526 269.824 316.562 257.909 330.211C251.436 337.626 243.163 341.666 233.317 342.221C232.586 342.261 231.864 342.281 231.153 342.281Z" fill="#71B5F9"/>
<mask id="mask3_31656_2151" style="mask-type:luminance" maskUnits="userSpaceOnUse" x="190" y="273" width="81" height="70">
<path d="M231.153 342.281C208.887 342.282 195.512 322.528 190.76 305.156L190.599 304.547C189.691 301.053 191.787 297.485 195.281 296.578C198.776 295.675 202.342 297.766 203.25 301.259L203.369 301.712C206.986 314.933 216.815 330.043 232.582 329.171C238.87 328.817 243.934 326.345 248.062 321.616C256.714 311.704 260.581 290.126 259.718 279.249C259.489 276.37 261.638 273.852 264.516 273.624C267.415 273.396 269.913 275.544 270.141 278.421C271.103 290.526 269.824 316.562 257.909 330.211C251.436 337.626 243.163 341.666 233.317 342.221C232.586 342.261 231.864 342.281 231.153 342.281Z" fill="white"/>
</mask>
<g mask="url(#mask3_31656_2151)">
<path d="M264.514 273.623C261.636 273.851 259.487 276.37 259.716 279.248C260.137 284.556 259.429 292.413 257.591 300.218C259.85 300.108 262.444 300.359 265.357 301.23C264.934 306.571 263.254 314.42 257.725 322.098C248.014 335.586 233.446 339.903 222.116 338.284C217.051 337.56 211.235 334.896 206.348 332.171C212.81 338.221 221.066 342.281 231.153 342.281C231.864 342.281 232.586 342.26 233.315 342.22C243.161 341.665 251.435 337.625 257.907 330.21C269.822 316.561 271.101 290.525 270.139 278.42C269.911 275.543 267.413 273.394 264.514 273.623Z" fill="#F6F6F7"/>
</g>
<mask id="mask4_31656_2151" style="mask-type:luminance" maskUnits="userSpaceOnUse" x="190" y="273" width="81" height="70">
<path d="M231.153 342.281C208.887 342.282 195.512 322.528 190.76 305.156L190.599 304.547C189.691 301.053 191.787 297.485 195.281 296.578C198.776 295.675 202.342 297.766 203.25 301.259L203.369 301.712C206.986 314.933 216.815 330.043 232.582 329.171C238.87 328.817 243.934 326.345 248.062 321.616C256.714 311.704 260.581 290.126 259.718 279.249C259.489 276.37 261.638 273.852 264.516 273.624C267.415 273.396 269.913 275.544 270.141 278.421C271.103 290.526 269.824 316.562 257.909 330.211C251.436 337.626 243.163 341.666 233.317 342.221C232.586 342.261 231.864 342.281 231.153 342.281Z" fill="white"/>
</mask>
<g mask="url(#mask4_31656_2151)">
<path opacity="0.5" d="M264.514 273.623C261.636 273.851 259.487 276.37 259.716 279.248C260.137 284.556 259.429 292.413 257.591 300.218C259.85 300.108 262.444 300.359 265.357 301.23C264.934 306.571 263.254 314.42 257.725 322.098C248.014 335.586 233.446 339.903 222.116 338.284C217.051 337.56 211.235 334.896 206.348 332.171C212.81 338.221 221.066 342.281 231.153 342.281C231.864 342.281 232.586 342.26 233.315 342.22C243.161 341.665 251.435 337.625 257.907 330.21C269.822 316.561 271.101 290.525 270.139 278.42C269.911 275.543 267.413 273.394 264.514 273.623Z" fill="#71B5F9"/>
</g>
<path d="M231.153 342.281C208.887 342.282 195.512 322.528 190.76 305.156L190.599 304.547C189.691 301.053 191.787 297.485 195.281 296.578C198.776 295.675 202.342 297.766 203.25 301.259L203.369 301.712C206.986 314.933 216.815 330.043 232.582 329.171C238.87 328.817 243.934 326.345 248.062 321.616C256.714 311.704 260.581 290.126 259.718 279.249C259.489 276.37 261.638 273.852 264.516 273.624C267.415 273.396 269.913 275.544 270.141 278.421C271.103 290.526 269.824 316.562 257.909 330.211C251.436 337.626 243.163 341.666 233.317 342.221C232.586 342.261 231.864 342.281 231.153 342.281Z" stroke="#1F1F1F" stroke-width="1.1133" stroke-miterlimit="10" stroke-linecap="round" stroke-linejoin="round"/>
<path d="M218.311 328.746C218.836 326.297 212.975 330.131 208.066 333.698C209.883 335.224 211.832 336.59 213.909 337.764C215.662 334.92 217.804 331.113 218.311 328.746Z" fill="#B3D6F9" stroke="#1F1F1F" stroke-width="1.1133" stroke-miterlimit="10" stroke-linecap="round" stroke-linejoin="round"/>
<path d="M231.153 342.281C231.864 342.281 232.586 342.26 233.315 342.22C235.498 342.097 237.6 341.793 239.626 341.328C236.868 337.726 233.072 332.974 231.975 332.609C230.727 332.193 228.317 338.324 226.982 342.042C228.337 342.198 229.726 342.281 231.153 342.281Z" fill="#B3D6F9" stroke="#1F1F1F" stroke-width="1.1133" stroke-miterlimit="10" stroke-linecap="round" stroke-linejoin="round"/>
<path d="M203.367 301.711L203.248 301.258C202.34 297.765 198.774 295.674 195.279 296.577C191.786 297.484 189.689 301.053 190.597 304.546L190.758 305.155C192.336 310.922 194.87 316.949 198.358 322.431L210.268 316.76C207.064 312.139 204.756 306.787 203.367 301.711Z" fill="#B3D6F9" stroke="#1F1F1F" stroke-width="1.1133" stroke-miterlimit="10" stroke-linecap="round" stroke-linejoin="round"/>
<path d="M257.908 330.21C258.818 329.167 259.659 328.045 260.449 326.869C256.674 325.578 251.01 323.803 248.908 323.994C246.416 324.221 249.797 332.219 251.543 336.004C253.824 334.382 255.949 332.453 257.908 330.21Z" fill="#B3D6F9" stroke="#1F1F1F" stroke-width="1.1133" stroke-miterlimit="10" stroke-linecap="round" stroke-linejoin="round"/>
<path d="M258.116 308.844C257.72 309.637 262.61 313.204 265.91 315.492C266.96 312.403 267.789 309.191 268.431 305.97C264.428 306.766 258.507 308.063 258.116 308.844Z" fill="#B3D6F9" stroke="#1F1F1F" stroke-width="1.1133" stroke-miterlimit="10" stroke-linecap="round" stroke-linejoin="round"/>
<path d="M270.051 294.051C270.273 291.201 270.377 288.479 270.39 285.976C266.952 287.874 262.869 290.49 262.869 292.21C262.869 293.873 266.69 294.139 270.051 294.051Z" fill="#B3D6F9" stroke="#1F1F1F" stroke-width="1.1133" stroke-miterlimit="10" stroke-linecap="round" stroke-linejoin="round"/>
<path d="M216.208 216.681C216.208 216.681 206.503 244.801 211.729 266.699C216.955 288.597 236.116 295.814 236.116 295.814C236.116 295.814 221.932 300.791 225.167 308.505C228.402 316.219 240.595 311.242 244.577 308.754C248.558 306.266 253.535 298.8 254.282 293.823C255.028 288.846 254.78 286.109 254.78 286.109C254.78 286.109 270.955 284.367 281.904 275.409C281.904 275.409 291.609 283.123 298.577 281.63C305.545 280.137 315.498 267.695 314.503 256.497C313.508 245.299 307.038 245.299 303.056 247.041C299.074 248.783 297.581 250.525 297.581 250.525C297.581 250.525 303.305 243.557 297.581 233.852C291.858 224.147 281.655 223.4 281.655 223.4C281.655 223.4 278.669 207.474 269.71 201.502C260.752 195.529 228.899 189.308 216.208 216.681Z" fill="#71B5F9"/>
<mask id="mask5_31656_2151" style="mask-type:luminance" maskUnits="userSpaceOnUse" x="210" y="196" width="105" height="117">
<path d="M216.208 216.681C216.208 216.681 206.503 244.801 211.729 266.699C216.955 288.597 236.116 295.814 236.116 295.814C236.116 295.814 221.932 300.791 225.167 308.505C228.402 316.219 240.595 311.242 244.577 308.754C248.558 306.266 253.535 298.8 254.282 293.823C255.028 288.846 254.78 286.109 254.78 286.109C254.78 286.109 270.955 284.367 281.904 275.409C281.904 275.409 291.609 283.123 298.577 281.63C305.545 280.137 315.498 267.695 314.503 256.497C313.508 245.299 307.038 245.299 303.056 247.041C299.074 248.783 297.581 250.525 297.581 250.525C297.581 250.525 303.305 243.557 297.581 233.852C291.858 224.147 281.655 223.4 281.655 223.4C281.655 223.4 278.669 207.474 269.71 201.502C260.752 195.529 228.899 189.308 216.208 216.681Z" fill="white"/>
</mask>
<g mask="url(#mask5_31656_2151)">
<path d="M290.143 226.354C283.092 238.096 268.789 251.6 246.285 253.574C226.482 255.311 215.381 251.411 210.265 248.703C210.955 231.924 216.209 216.682 216.209 216.682C228.9 189.309 260.752 195.53 269.711 201.502C278.669 207.474 281.656 223.4 281.656 223.4C281.656 223.4 285.711 223.702 290.143 226.354ZM303.055 247.04C299.073 248.782 297.58 250.524 297.58 250.524C297.58 250.524 299.309 248.403 299.913 244.884C286.462 251.578 287.512 265.902 285.838 265.902C283.783 265.902 282.756 258.71 282.756 258.71C282.756 258.71 280.188 268.984 264.777 276.175C249.366 283.366 231.901 277.716 231.901 277.716C231.901 277.716 235.497 285.935 226.25 284.908C223.126 284.561 220.779 283.506 219.021 282.266C226.489 292.179 236.115 295.813 236.115 295.813C236.115 295.813 221.931 300.79 225.166 308.504C228.401 316.218 240.594 311.241 244.576 308.753C248.557 306.265 253.534 298.799 254.281 293.822C255.027 288.845 254.779 286.108 254.779 286.108C254.779 286.108 270.954 284.366 281.903 275.408C281.903 275.408 291.608 283.122 298.576 281.629C305.544 280.136 315.497 267.694 314.502 256.496C313.507 245.298 307.037 245.298 303.055 247.04Z" fill="#F6F6F7"/>
</g>
<mask id="mask6_31656_2151" style="mask-type:luminance" maskUnits="userSpaceOnUse" x="210" y="196" width="105" height="117">
<path d="M216.208 216.681C216.208 216.681 206.503 244.801 211.729 266.699C216.955 288.597 236.116 295.814 236.116 295.814C236.116 295.814 221.932 300.791 225.167 308.505C228.402 316.219 240.595 311.242 244.577 308.754C248.558 306.266 253.535 298.8 254.282 293.823C255.028 288.846 254.78 286.109 254.78 286.109C254.78 286.109 270.955 284.367 281.904 275.409C281.904 275.409 291.609 283.123 298.577 281.63C305.545 280.137 315.498 267.695 314.503 256.497C313.508 245.299 307.038 245.299 303.056 247.041C299.074 248.783 297.581 250.525 297.581 250.525C297.581 250.525 303.305 243.557 297.581 233.852C291.858 224.147 281.655 223.4 281.655 223.4C281.655 223.4 278.669 207.474 269.71 201.502C260.752 195.529 228.899 189.308 216.208 216.681Z" fill="white"/>
</mask>
<g mask="url(#mask6_31656_2151)">
<path opacity="0.5" d="M290.143 226.354C283.092 238.096 268.789 251.6 246.285 253.574C226.482 255.311 215.381 251.411 210.265 248.703C210.955 231.924 216.209 216.682 216.209 216.682C228.9 189.309 260.752 195.53 269.711 201.502C278.669 207.474 281.656 223.4 281.656 223.4C281.656 223.4 285.711 223.702 290.143 226.354ZM303.055 247.04C299.073 248.782 297.58 250.524 297.58 250.524C297.58 250.524 299.309 248.403 299.913 244.884C286.462 251.578 287.512 265.902 285.838 265.902C283.783 265.902 282.756 258.71 282.756 258.71C282.756 258.71 280.188 268.984 264.777 276.175C249.366 283.366 231.901 277.716 231.901 277.716C231.901 277.716 235.497 285.935 226.25 284.908C223.126 284.561 220.779 283.506 219.021 282.266C226.489 292.179 236.115 295.813 236.115 295.813C236.115 295.813 221.931 300.79 225.166 308.504C228.401 316.218 240.594 311.241 244.576 308.753C248.557 306.265 253.534 298.799 254.281 293.822C255.027 288.845 254.779 286.108 254.779 286.108C254.779 286.108 270.954 284.366 281.903 275.408C281.903 275.408 291.608 283.122 298.576 281.629C305.544 280.136 315.497 267.694 314.502 256.496C313.507 245.298 307.037 245.298 303.055 247.04Z" fill="#71B5F9"/>
</g>
<mask id="mask7_31656_2151" style="mask-type:luminance" maskUnits="userSpaceOnUse" x="210" y="196" width="105" height="117">
<path d="M216.208 216.681C216.208 216.681 206.503 244.801 211.729 266.699C216.955 288.597 236.116 295.814 236.116 295.814C236.116 295.814 221.932 300.791 225.167 308.505C228.402 316.219 240.595 311.242 244.577 308.754C248.558 306.266 253.535 298.8 254.282 293.823C255.028 288.846 254.78 286.109 254.78 286.109C254.78 286.109 270.955 284.367 281.904 275.409C281.904 275.409 291.609 283.123 298.577 281.63C305.545 280.137 315.498 267.695 314.503 256.497C313.508 245.299 307.038 245.299 303.056 247.041C299.074 248.783 297.581 250.525 297.581 250.525C297.581 250.525 303.305 243.557 297.581 233.852C291.858 224.147 281.655 223.4 281.655 223.4C281.655 223.4 278.669 207.474 269.71 201.502C260.752 195.529 228.899 189.308 216.208 216.681Z" fill="white"/>
</mask>
<g mask="url(#mask7_31656_2151)">
<path d="M254.779 286.109C254.779 286.109 238.214 287.457 226.629 273.198" stroke="#1F1F1F" stroke-width="1.1133" stroke-miterlimit="10" stroke-linecap="round" stroke-linejoin="round"/>
</g>
<path d="M216.208 216.681C216.208 216.681 206.503 244.801 211.729 266.699C216.955 288.597 236.116 295.814 236.116 295.814C236.116 295.814 221.932 300.791 225.167 308.505C228.402 316.219 240.595 311.242 244.577 308.754C248.558 306.266 253.535 298.8 254.282 293.823C255.028 288.846 254.78 286.109 254.78 286.109C254.78 286.109 270.955 284.367 281.904 275.409C281.904 275.409 291.609 283.123 298.577 281.63C305.545 280.137 315.498 267.695 314.503 256.497C313.508 245.299 307.038 245.299 303.056 247.041C299.074 248.783 297.581 250.525 297.581 250.525C297.581 250.525 303.305 243.557 297.581 233.852C291.858 224.147 281.655 223.4 281.655 223.4C281.655 223.4 278.669 207.474 269.71 201.502C260.752 195.529 228.899 189.308 216.208 216.681Z" stroke="#1F1F1F" stroke-width="1.1133" stroke-miterlimit="10" stroke-linecap="round" stroke-linejoin="round"/>
<path d="M297.581 250.524C297.581 250.524 292.355 254.008 289.867 264.708" stroke="#263238" stroke-width="1.1133" stroke-miterlimit="10" stroke-linecap="round" stroke-linejoin="round"/>
<path d="M307.172 255.1C306.557 256.923 304.892 258.008 303.453 257.522C302.014 257.037 301.346 255.165 301.961 253.342C302.576 251.519 304.241 250.434 305.68 250.92C307.119 251.405 307.788 253.276 307.172 255.1Z" fill="#71B5F9" stroke="#1F1F1F" stroke-width="1.1133" stroke-miterlimit="10" stroke-linecap="round" stroke-linejoin="round"/>
<path d="M312.32 258.338C311.705 260.161 310.04 261.246 308.601 260.76C307.162 260.275 306.494 258.403 307.109 256.58C307.724 254.757 309.389 253.672 310.828 254.158C312.267 254.644 312.935 256.515 312.32 258.338Z" fill="#71B5F9" stroke="#1F1F1F" stroke-width="1.1133" stroke-miterlimit="10" stroke-linecap="round" stroke-linejoin="round"/>
<path d="M313.417 263.187C312.97 264.511 311.761 265.299 310.716 264.946C309.671 264.593 309.186 263.234 309.632 261.91C310.079 260.586 311.288 259.798 312.333 260.151C313.379 260.504 313.864 261.863 313.417 263.187Z" fill="#71B5F9" stroke="#1F1F1F" stroke-width="1.1133" stroke-miterlimit="10" stroke-linecap="round" stroke-linejoin="round"/>
<path d="M306.849 269.849C305.051 273.095 301.449 274.539 298.805 273.074C296.16 271.609 295.473 267.79 297.271 264.544C299.069 261.298 302.671 259.854 305.316 261.319C307.96 262.784 308.647 266.603 306.849 269.849Z" fill="#71B5F9" stroke="#1F1F1F" stroke-width="1.1133" stroke-miterlimit="10" stroke-linecap="round" stroke-linejoin="round"/>
<path d="M236.116 295.813C236.116 295.813 240.595 298.301 246.816 296.559" stroke="#1F1F1F" stroke-width="1.1133" stroke-miterlimit="10" stroke-linecap="round" stroke-linejoin="round"/>
<path d="M225.167 308.504C225.167 308.504 226.162 304.274 232.383 301.287" stroke="#1F1F1F" stroke-width="1.1133" stroke-miterlimit="10" stroke-linecap="round" stroke-linejoin="round"/>
<path d="M231.388 312.237C231.388 312.237 233.876 306.265 238.107 303.527" stroke="#1F1F1F" stroke-width="1.1133" stroke-miterlimit="10" stroke-linecap="round" stroke-linejoin="round"/>
<path d="M133.257 243.395C131.111 241.679 130.038 239.319 130.038 236.314V212.601H68.8801C65.5891 212.601 62.9251 211.493 60.8871 209.275C58.8481 207.059 57.8291 204.447 57.8291 201.443C57.8291 199.083 58.5081 196.866 59.8681 194.791L118.45 102.733C122.812 95.938 128.643 92.54 135.939 92.54C140.231 92.54 143.807 93.793 146.668 96.296C149.528 98.801 150.96 102.519 150.96 107.455V196.938H166.518C169.021 196.938 170.952 197.708 172.312 199.245C173.67 200.784 174.35 202.625 174.35 204.771C174.35 206.917 173.67 208.76 172.312 210.297C170.952 211.836 169.021 212.604 166.518 212.604H150.854V236.317C150.854 239.321 149.816 241.681 147.742 243.398C145.666 245.115 143.271 245.973 140.553 245.973C137.833 245.97 135.402 245.112 133.257 243.395ZM130.038 196.937V114.535L78.7521 196.937H130.038Z" fill="#1F1F1F"/>
<path d="M218.126 243.878C211.759 240.982 206.592 237.119 202.622 232.29C198.652 227.462 195.396 221.579 192.858 214.64C190.318 207.703 188.548 200.585 187.547 193.289C186.544 185.993 186.045 178.018 186.045 169.362C186.045 116.645 204.033 90.2871 240.014 90.2871C275.921 90.2871 293.876 116.646 293.876 169.362C293.876 177.946 293.393 185.885 292.428 193.182C291.461 200.478 289.708 207.596 287.17 214.533C284.63 221.472 281.376 227.355 277.406 232.183C273.436 237.011 268.268 240.892 261.902 243.824C255.535 246.756 248.239 248.223 240.014 248.223C231.788 248.223 224.492 246.775 218.126 243.878ZM250.69 228.749C253.873 227.354 256.554 225.531 258.737 223.277C260.918 221.024 262.814 218.217 264.424 214.854C266.033 211.492 267.303 208.094 268.233 204.661C269.161 201.228 269.896 197.348 270.432 193.02C270.968 188.693 271.326 184.724 271.505 181.111C271.682 177.5 271.773 173.584 271.773 169.362C271.773 164.928 271.682 160.832 271.505 157.077C271.325 153.322 270.95 149.282 270.378 144.953C269.805 140.626 269.053 136.745 268.125 133.312C267.194 129.878 265.926 126.517 264.317 123.227C262.708 119.937 260.812 117.183 258.63 114.965C256.447 112.749 253.783 110.979 250.636 109.654C247.488 108.331 243.948 107.669 240.014 107.669C236.079 107.669 232.539 108.331 229.392 109.654C226.244 110.979 223.598 112.73 221.453 114.911C219.306 117.094 217.41 119.83 215.766 123.12C214.12 126.411 212.85 129.772 211.956 133.205C211.061 136.638 210.328 140.538 209.757 144.9C209.184 149.264 208.808 153.323 208.63 157.078C208.45 160.834 208.362 164.929 208.362 169.363C208.362 173.584 208.45 177.517 208.63 181.165C208.808 184.813 209.166 188.801 209.703 193.128C210.239 197.457 210.971 201.336 211.902 204.769C212.831 208.203 214.102 211.601 215.711 214.962C217.321 218.325 219.198 221.114 221.343 223.33C223.489 225.548 226.153 227.354 229.337 228.748C232.519 230.143 236.078 230.841 240.012 230.841C243.948 230.842 247.507 230.145 250.69 228.749Z" fill="#1F1F1F"/>
<path d="M386.578 243.395C384.432 241.679 383.359 239.319 383.359 236.314V212.601H322.202C318.91 212.601 316.247 211.493 314.208 209.275C312.169 207.059 311.15 204.447 311.15 201.443C311.15 199.083 311.829 196.866 313.188 194.791L371.771 102.733C376.133 95.938 381.964 92.54 389.26 92.54C393.551 92.54 397.127 93.793 399.989 96.296C402.849 98.801 404.281 102.519 404.281 107.455V196.938H419.838C422.341 196.938 424.273 197.708 425.632 199.245C426.991 200.784 427.671 202.625 427.671 204.771C427.671 206.917 426.991 208.76 425.632 210.297C424.273 211.836 422.341 212.604 419.838 212.604H404.173V236.317C404.173 239.321 403.136 241.681 401.062 243.398C398.986 245.115 396.591 245.973 393.873 245.973C391.155 245.97 388.724 245.112 386.578 243.395ZM383.359 196.937V114.535L332.072 196.937H383.359Z" fill="#1F1F1F"/>
<path d="M196.052 202.496C196.052 202.496 185.6 217.178 184.107 232.109C182.614 247.04 184.356 256.994 188.835 260.726C193.314 264.459 197.793 262.966 200.282 259.482C202.771 255.998 198.789 243.805 198.789 243.805C198.789 243.805 203.02 232.109 209.49 223.897C215.96 215.685 217.204 214.441 217.204 214.441C217.204 214.441 206.005 201.75 196.052 202.496Z" fill="#71B5F9"/>
<mask id="mask8_31656_2151" style="mask-type:luminance" maskUnits="userSpaceOnUse" x="183" y="202" width="35" height="61">
<path d="M196.052 202.496C196.052 202.496 185.6 217.178 184.107 232.109C182.614 247.04 184.356 256.994 188.835 260.726C193.314 264.459 197.793 262.966 200.282 259.482C202.771 255.998 198.789 243.805 198.789 243.805C198.789 243.805 203.02 232.109 209.49 223.897C215.96 215.685 217.204 214.441 217.204 214.441C217.204 214.441 206.005 201.75 196.052 202.496Z" fill="white"/>
</mask>
<g mask="url(#mask8_31656_2151)">
<path d="M196.052 202.496C196.052 202.496 193.002 206.785 189.962 213.079C194.957 215.094 202.712 219.184 207.63 226.435C208.227 225.565 208.847 224.713 209.49 223.897C215.96 215.685 217.204 214.441 217.204 214.441C217.204 214.441 206.005 201.75 196.052 202.496Z" fill="#F6F6F7"/>
</g>
<mask id="mask9_31656_2151" style="mask-type:luminance" maskUnits="userSpaceOnUse" x="183" y="202" width="35" height="61">
<path d="M196.052 202.496C196.052 202.496 185.6 217.178 184.107 232.109C182.614 247.04 184.356 256.994 188.835 260.726C193.314 264.459 197.793 262.966 200.282 259.482C202.771 255.998 198.789 243.805 198.789 243.805C198.789 243.805 203.02 232.109 209.49 223.897C215.96 215.685 217.204 214.441 217.204 214.441C217.204 214.441 206.005 201.75 196.052 202.496Z" fill="white"/>
</mask>
<g mask="url(#mask9_31656_2151)">
<path opacity="0.5" d="M196.052 202.496C196.052 202.496 193.002 206.785 189.962 213.079C194.957 215.094 202.712 219.184 207.63 226.435C208.227 225.565 208.847 224.713 209.49 223.897C215.96 215.685 217.204 214.441 217.204 214.441C217.204 214.441 206.005 201.75 196.052 202.496Z" fill="#71B5F9"/>
</g>
<path d="M196.052 202.496C196.052 202.496 185.6 217.178 184.107 232.109C182.614 247.04 184.356 256.994 188.835 260.726C193.314 264.459 197.793 262.966 200.282 259.482C202.771 255.998 198.789 243.805 198.789 243.805C198.789 243.805 203.02 232.109 209.49 223.897C215.96 215.685 217.204 214.441 217.204 214.441C217.204 214.441 206.005 201.75 196.052 202.496Z" stroke="#1F1F1F" stroke-width="1.1133" stroke-miterlimit="10" stroke-linecap="round" stroke-linejoin="round"/>
<path d="M188.835 260.726C188.835 260.726 187.093 256.744 187.093 250.523" stroke="#1F1F1F" stroke-width="1.1133" stroke-miterlimit="10" stroke-linecap="round" stroke-linejoin="round"/>
<path d="M195.554 262.219C195.554 262.219 193.066 257.989 192.817 250.772" stroke="#1F1F1F" stroke-width="1.1133" stroke-miterlimit="10" stroke-linecap="round" stroke-linejoin="round"/>
<path d="M199.287 229.123C199.287 226.499 194.289 221.379 187.336 219.163C186.436 221.537 185.632 224.05 185.032 226.628C186.907 226.985 190.267 227.764 192.817 229.124C196.549 231.114 199.287 232.109 199.287 229.123Z" fill="#B3D6F9" stroke="#1F1F1F" stroke-width="1.1133" stroke-miterlimit="10" stroke-linecap="round" stroke-linejoin="round"/>
<path d="M195.444 203.391C194.573 204.704 192.869 207.395 191.028 210.947C192.866 211.43 194.905 212.202 197.047 213.446C204.761 217.925 206.254 218.423 203.766 211.953C202.216 207.924 198.642 205.151 195.444 203.391Z" fill="#B3D6F9" stroke="#1F1F1F" stroke-width="1.1133" stroke-miterlimit="10" stroke-linecap="round" stroke-linejoin="round"/>
<path d="M277.901 195.249C277.901 195.249 289.742 208.835 292.693 223.547C295.643 238.259 294.886 248.336 290.795 252.49C286.704 256.644 282.1 255.597 279.281 252.374C276.463 249.151 279.229 236.626 279.229 236.626C279.229 236.626 273.872 225.402 266.628 217.864C259.384 210.326 258.023 209.21 258.023 209.21C258.023 209.21 267.922 195.482 277.901 195.249Z" fill="#71B5F9"/>
<mask id="mask10_31656_2151" style="mask-type:luminance" maskUnits="userSpaceOnUse" x="258" y="195" width="37" height="61">
<path d="M277.901 195.249C277.901 195.249 289.742 208.835 292.693 223.547C295.643 238.259 294.886 248.336 290.795 252.49C286.704 256.644 282.1 255.597 279.281 252.374C276.463 249.151 279.229 236.626 279.229 236.626C279.229 236.626 273.872 225.402 266.628 217.864C259.384 210.326 258.023 209.21 258.023 209.21C258.023 209.21 267.922 195.482 277.901 195.249Z" fill="white"/>
</mask>
<g mask="url(#mask10_31656_2151)">
<path d="M277.901 195.248C267.922 195.481 258.023 209.21 258.023 209.21C258.023 209.21 259.383 210.326 266.627 217.864C267.975 219.267 269.258 220.798 270.453 222.361C272.987 218.134 277.974 211.478 286.115 207.064C282.096 200.064 277.901 195.248 277.901 195.248Z" fill="#B3D6F9"/>
</g>
<mask id="mask11_31656_2151" style="mask-type:luminance" maskUnits="userSpaceOnUse" x="258" y="195" width="37" height="61">
<path d="M277.901 195.249C277.901 195.249 289.742 208.835 292.693 223.547C295.643 238.259 294.886 248.336 290.795 252.49C286.704 256.644 282.1 255.597 279.281 252.374C276.463 249.151 279.229 236.626 279.229 236.626C279.229 236.626 273.872 225.402 266.628 217.864C259.384 210.326 258.023 209.21 258.023 209.21C258.023 209.21 267.922 195.482 277.901 195.249Z" fill="white"/>
</mask>
<g mask="url(#mask11_31656_2151)">
<path opacity="0.5" d="M277.901 195.248C267.922 195.481 258.023 209.21 258.023 209.21C258.023 209.21 259.383 210.326 266.627 217.864C267.975 219.267 269.258 220.798 270.453 222.361C272.987 218.134 277.974 211.478 286.115 207.064C282.096 200.064 277.901 195.248 277.901 195.248Z" fill="#71B5F9"/>
</g>
<path d="M277.901 195.249C277.901 195.249 289.742 208.835 292.693 223.547C295.643 238.259 294.886 248.336 290.795 252.49C286.704 256.644 282.1 255.597 279.281 252.374C276.463 249.151 279.229 236.626 279.229 236.626C279.229 236.626 273.872 225.402 266.628 217.864C259.384 210.326 258.023 209.21 258.023 209.21C258.023 209.21 267.922 195.482 277.901 195.249Z" stroke="#1F1F1F" stroke-width="1.1133" stroke-miterlimit="10" stroke-linecap="round" stroke-linejoin="round"/>
<path d="M290.794 252.49C290.794 252.49 292.137 248.357 291.527 242.166" stroke="#1F1F1F" stroke-width="1.1133" stroke-miterlimit="10" stroke-linecap="round" stroke-linejoin="round"/>
<path d="M284.254 254.635C284.254 254.635 286.316 250.181 285.855 242.975" stroke="#1F1F1F" stroke-width="1.1133" stroke-miterlimit="10" stroke-linecap="round" stroke-linejoin="round"/>
<path d="M277.293 222.064C277.036 219.452 281.507 213.867 288.209 210.979C289.338 213.253 290.385 215.675 291.234 218.182C289.403 218.722 286.136 219.826 283.732 221.429C280.212 223.777 277.586 225.036 277.293 222.064Z" fill="#B3D6F9" stroke="#1F1F1F" stroke-width="1.1133" stroke-miterlimit="10" stroke-linecap="round" stroke-linejoin="round"/>
<path d="M278.593 196.079C279.588 197.301 281.549 199.811 283.728 203.166C281.946 203.827 279.993 204.795 277.983 206.243C270.745 211.457 269.308 212.099 271.15 205.416C272.298 201.255 275.583 198.145 278.593 196.079Z" fill="#B3D6F9" stroke="#1F1F1F" stroke-width="1.1133" stroke-miterlimit="10" stroke-linecap="round" stroke-linejoin="round"/>
<path d="M195.072 189.797C195.072 189.797 191.993 200.191 193.147 204.425C194.302 208.659 199.691 204.81 205.08 209.429C210.469 214.048 215.465 222.358 235.867 223.897C256.269 225.437 268.596 214.433 272.831 208.274C277.065 202.115 276.68 194.801 283.994 194.416C291.308 194.031 285.149 179.788 282.839 177.478C282.839 177.478 297.082 156.306 297.082 150.917C297.082 145.528 283.609 146.683 267.056 151.687C267.056 151.687 254.738 145.143 232.411 148.992C210.084 152.841 203.54 159.386 203.54 159.386C203.54 159.386 175.824 162.85 173.899 166.315C171.975 169.779 177.749 184.407 195.072 189.797Z" fill="#71B5F9"/>
<mask id="mask12_31656_2151" style="mask-type:luminance" maskUnits="userSpaceOnUse" x="173" y="147" width="125" height="78">
<path d="M195.072 189.797C195.072 189.797 191.993 200.191 193.147 204.425C194.302 208.659 199.691 204.81 205.08 209.429C210.469 214.048 215.465 222.358 235.867 223.897C256.269 225.437 268.596 214.433 272.831 208.274C277.065 202.115 276.68 194.801 283.994 194.416C291.308 194.031 285.149 179.788 282.839 177.478C282.839 177.478 297.082 156.306 297.082 150.917C297.082 145.528 283.609 146.683 267.056 151.687C267.056 151.687 254.738 145.143 232.411 148.992C210.084 152.841 203.54 159.386 203.54 159.386C203.54 159.386 175.824 162.85 173.899 166.315C171.975 169.779 177.749 184.407 195.072 189.797Z" fill="white"/>
</mask>
<g mask="url(#mask12_31656_2151)">
<path d="M283.994 194.415C291.308 194.03 285.149 179.787 282.839 177.477C282.839 177.477 285.548 173.45 288.602 168.463C280.325 164.139 272.205 161.739 270.044 164.17C265.402 169.393 267.93 179.392 270.044 189.117C272.158 198.842 263.701 203.071 257.782 211.527C251.862 219.984 243.405 210.681 243.405 210.681C240.445 222.943 227.76 214.909 227.76 214.909C218.035 211.949 201.544 202.224 204.927 195.458C208.31 188.693 209.155 182.35 203.236 176.853C197.316 171.356 173.706 166.798 173.706 166.798C172.47 170.964 178.456 184.625 195.07 189.794C195.07 189.794 191.99 200.187 193.145 204.422C194.3 208.656 199.689 204.807 205.078 209.426C210.467 214.045 215.463 222.355 235.865 223.894C256.267 225.434 268.594 214.43 272.829 208.271C277.065 202.114 276.68 194.8 283.994 194.415Z" fill="#F6F6F7"/>
</g>
<mask id="mask13_31656_2151" style="mask-type:luminance" maskUnits="userSpaceOnUse" x="173" y="147" width="125" height="78">
<path d="M195.072 189.797C195.072 189.797 191.993 200.191 193.147 204.425C194.302 208.659 199.691 204.81 205.08 209.429C210.469 214.048 215.465 222.358 235.867 223.897C256.269 225.437 268.596 214.433 272.831 208.274C277.065 202.115 276.68 194.801 283.994 194.416C291.308 194.031 285.149 179.788 282.839 177.478C282.839 177.478 297.082 156.306 297.082 150.917C297.082 145.528 283.609 146.683 267.056 151.687C267.056 151.687 254.738 145.143 232.411 148.992C210.084 152.841 203.54 159.386 203.54 159.386C203.54 159.386 175.824 162.85 173.899 166.315C171.975 169.779 177.749 184.407 195.072 189.797Z" fill="white"/>
</mask>
<g mask="url(#mask13_31656_2151)">
<path opacity="0.5" d="M283.994 194.415C291.308 194.03 285.149 179.787 282.839 177.477C282.839 177.477 285.548 173.45 288.602 168.463C280.325 164.139 272.205 161.739 270.044 164.17C265.402 169.393 267.93 179.392 270.044 189.117C272.158 198.842 263.701 203.071 257.782 211.527C251.862 219.984 243.405 210.681 243.405 210.681C240.445 222.943 227.76 214.909 227.76 214.909C218.035 211.949 201.544 202.224 204.927 195.458C208.31 188.693 209.155 182.35 203.236 176.853C197.316 171.356 173.706 166.798 173.706 166.798C172.47 170.964 178.456 184.625 195.07 189.794C195.07 189.794 191.99 200.187 193.145 204.422C194.3 208.656 199.689 204.807 205.078 209.426C210.467 214.045 215.463 222.355 235.865 223.894C256.267 225.434 268.594 214.43 272.829 208.271C277.065 202.114 276.68 194.8 283.994 194.415Z" fill="#71B5F9"/>
</g>
<mask id="mask14_31656_2151" style="mask-type:luminance" maskUnits="userSpaceOnUse" x="173" y="147" width="125" height="78">
<path d="M195.072 189.797C195.072 189.797 191.993 200.191 193.147 204.425C194.302 208.659 199.691 204.81 205.08 209.429C210.469 214.048 215.465 222.358 235.867 223.897C256.269 225.437 268.596 214.433 272.831 208.274C277.065 202.115 276.68 194.801 283.994 194.416C291.308 194.031 285.149 179.788 282.839 177.478C282.839 177.478 297.082 156.306 297.082 150.917C297.082 145.528 283.609 146.683 267.056 151.687C267.056 151.687 254.738 145.143 232.411 148.992C210.084 152.841 203.54 159.386 203.54 159.386C203.54 159.386 175.824 162.85 173.899 166.315C171.975 169.779 177.749 184.407 195.072 189.797Z" fill="white"/>
</mask>
<g mask="url(#mask14_31656_2151)">
<path d="M253.893 196.744C254.176 199.18 248.764 201.81 241.805 202.619C234.846 203.428 228.975 202.11 228.692 199.674C228.409 197.238 233.821 194.608 240.779 193.799C247.739 192.989 253.609 194.308 253.893 196.744Z" fill="#F6F6F7"/>
</g>
<mask id="mask15_31656_2151" style="mask-type:luminance" maskUnits="userSpaceOnUse" x="173" y="147" width="125" height="78">
<path d="M195.072 189.797C195.072 189.797 191.993 200.191 193.147 204.425C194.302 208.659 199.691 204.81 205.08 209.429C210.469 214.048 215.465 222.358 235.867 223.897C256.269 225.437 268.596 214.433 272.831 208.274C277.065 202.115 276.68 194.801 283.994 194.416C291.308 194.031 285.149 179.788 282.839 177.478C282.839 177.478 297.082 156.306 297.082 150.917C297.082 145.528 283.609 146.683 267.056 151.687C267.056 151.687 254.738 145.143 232.411 148.992C210.084 152.841 203.54 159.386 203.54 159.386C203.54 159.386 175.824 162.85 173.899 166.315C171.975 169.779 177.749 184.407 195.072 189.797Z" fill="white"/>
</mask>
<g mask="url(#mask15_31656_2151)">
<path opacity="0.5" d="M253.893 196.744C254.176 199.18 248.764 201.81 241.805 202.619C234.846 203.428 228.975 202.11 228.692 199.674C228.409 197.238 233.821 194.608 240.779 193.799C247.739 192.989 253.609 194.308 253.893 196.744Z" fill="#71B5F9"/>
</g>
<path d="M195.072 189.797C195.072 189.797 191.993 200.191 193.147 204.425C194.302 208.659 199.691 204.81 205.08 209.429C210.469 214.048 215.465 222.358 235.867 223.897C256.269 225.437 268.596 214.433 272.831 208.274C277.065 202.115 276.68 194.801 283.994 194.416C291.308 194.031 285.149 179.788 282.839 177.478C282.839 177.478 297.082 156.306 297.082 150.917C297.082 145.528 283.609 146.683 267.056 151.687C267.056 151.687 254.738 145.143 232.411 148.992C210.084 152.841 203.54 159.386 203.54 159.386C203.54 159.386 175.824 162.85 173.899 166.315C171.975 169.779 177.749 184.407 195.072 189.797Z" stroke="#1F1F1F" stroke-width="1.1133" stroke-miterlimit="10"/>
<path d="M274.687 158.948C264.733 165.667 268.217 172.386 272.696 176.118C275.431 178.397 279.829 178.077 282.844 177.483C282.842 177.482 282.841 177.479 282.839 177.478C282.839 177.478 297.082 156.306 297.082 150.917C297.082 150.917 284.641 152.23 274.687 158.948Z" fill="#B3D6F9" stroke="#1F1F1F" stroke-width="1.1133" stroke-miterlimit="10"/>
<path d="M173.707 166.801C172.471 170.967 178.457 184.628 195.071 189.797C195.071 189.797 207.747 188.561 203.516 178.359C199.57 168.84 179.601 166.47 173.707 166.801Z" fill="#B3D6F9" stroke="#1F1F1F" stroke-width="1.1133" stroke-miterlimit="10"/>
<path d="M232.411 148.992C231.096 149.219 229.84 149.456 228.632 149.699C230.623 159.797 233.922 176.616 236.862 176.616C239.907 176.616 242.049 158.18 243.011 147.848C239.779 147.982 236.246 148.331 232.411 148.992Z" fill="#B3D6F9" stroke="#1F1F1F" stroke-width="1.1133" stroke-miterlimit="10"/>
<path d="M220.936 173.63C223.998 171.829 223.54 158.301 223.053 150.962C219.336 151.905 216.263 152.903 213.736 153.87C214.855 160.742 217.673 175.55 220.936 173.63Z" fill="#B3D6F9" stroke="#1F1F1F" stroke-width="1.1133" stroke-miterlimit="10"/>
<path d="M250.549 167.409C253.685 168.507 255.437 157.258 256.429 148.596C253.73 148.152 250.537 147.829 246.868 147.787C246.772 154.904 247.162 166.224 250.549 167.409Z" fill="#B3D6F9" stroke="#1F1F1F" stroke-width="1.1133" stroke-miterlimit="10"/>
<path d="M246.361 206.355C244.668 205.944 241.038 205.434 237.687 207.418C237.192 207.711 237.107 208.4 237.527 208.793L242.845 213.778C243.272 214.178 243.966 214.041 244.208 213.508L246.925 207.537C247.146 207.053 246.878 206.48 246.361 206.355Z" fill="#F6F6F7" stroke="#1F1F1F" stroke-width="1.1133" stroke-miterlimit="10" stroke-linecap="round" stroke-linejoin="round"/>
<path d="M233.737 198.01C234.471 199.936 234.182 201.835 233.09 202.251C231.998 202.667 230.518 201.443 229.784 199.517C229.05 197.591 229.339 195.692 230.431 195.276C231.523 194.86 233.003 196.084 233.737 198.01Z" fill="#1F1F1F"/>
<path d="M248.221 196.632C247.841 198.658 248.464 200.475 249.612 200.69C250.76 200.905 251.999 199.437 252.379 197.411C252.759 195.385 252.136 193.568 250.987 193.353C249.839 193.138 248.601 194.606 248.221 196.632Z" fill="#1F1F1F"/>
<path d="M244.208 213.508C244.208 213.508 237.111 223.151 230.641 213.445" stroke="#1F1F1F" stroke-width="1.1133" stroke-miterlimit="10" stroke-linecap="round" stroke-linejoin="round"/>
<path d="M242.845 213.778C242.845 213.778 247.563 218.672 252.54 215.934C257.517 213.197 254.531 208.966 254.531 208.966" stroke="#1F1F1F" stroke-width="1.1133" stroke-miterlimit="10" stroke-linecap="round" stroke-linejoin="round"/>
<path d="M221.185 190.303C221.185 190.303 222.927 184.082 231.139 185.575" stroke="#1F1F1F" stroke-width="3.3399" stroke-miterlimit="10" stroke-linecap="round" stroke-linejoin="round"/>
<path d="M246.07 184.58C246.07 184.58 252.291 180.847 258.015 186.82" stroke="#1F1F1F" stroke-width="3.3399" stroke-miterlimit="10" stroke-linecap="round" stroke-linejoin="round"/>
<path d="M216.457 206.977L222.429 208.47" stroke="#1F1F1F" stroke-width="1.1133" stroke-miterlimit="10" stroke-linecap="round"/>
<path d="M221.683 210.708L216.457 211.704" stroke="#1F1F1F" stroke-width="1.1133" stroke-miterlimit="10" stroke-linecap="round"/>
<path d="M222.678 213.446L218.945 215.436" stroke="#1F1F1F" stroke-width="1.1133" stroke-miterlimit="10" stroke-linecap="round"/>
<path d="M260.503 204.238L265.728 202.994" stroke="#1F1F1F" stroke-width="1.1133" stroke-miterlimit="10" stroke-linecap="round"/>
<path d="M261.498 206.728H264.982" stroke="#1F1F1F" stroke-width="1.1133" stroke-miterlimit="10" stroke-linecap="round"/>
<path d="M262.245 209.215L266.973 210.46" stroke="#1F1F1F" stroke-width="1.1133" stroke-miterlimit="10" stroke-linecap="round"/>
</svg>
